<svg xmlns="http://www.w3.org/2000/svg" fill="#68217a" viewBox="0 0 48 48" height="100px" width="100px">
    <path
        d="M14.6406 7.75C10.8527 7.75 7.75 10.8507 7.75 14.6387l0 4.6816a1.6904 1.6904 0 003.3809 0l0-4.6816c0-1.9739 1.5359-3.5098 3.5098-3.5098l4.6797 0a1.6902 1.6902 0 100-3.3789l-4.6797 0zm14.041 0a1.6902 1.6902 0 100 3.3789l4.6797 0c1.9739 0 3.5098 1.5359 3.5098 3.5098l0 4.6816a1.6904 1.6904 0 003.3809 0l0-4.6816C40.252 10.8507 37.1493 7.75 33.3613 7.75l-4.6797 0zM9.4141 26.9668A1.6902 1.6902 0 007.75 28.6797l0 4.6816c0 3.7879 3.1027 6.8887 6.8906 6.8887l4.6797 0a1.6902 1.6902 0 100-3.3789l-4.6797 0c-1.9739 0-3.5098-1.5359-3.5098-3.5098l0-4.6816A1.6902 1.6902 0 009.4141 26.9668Zm29.1211 0a1.6902 1.6902 0 00-1.6641 1.7129l0 4.6816c0 1.9739-1.5359 3.5098-3.5098 3.5098l-4.6797 0a1.6902 1.6902 0 100 3.3789l4.6797 0c3.7879 0 6.8906-3.1007 6.8906-6.8887l0-4.6816a1.6902 1.6902 0 00-1.7168-1.7129z">
    </path>
    <path
        d="m28.748 15.8672a1.6902 1.6902 0 00-1.6641 1.7129l0 12.8398a1.6902 1.6902 0 103.3789 0l0-12.8398a1.6902 1.6902 0 00-1.7148-1.7129z">
    </path>
    <path
        d="m19.2012 15.8672a1.6902 1.6902 0 00-1.6641 1.7129l0 12.8398a1.6904 1.6904 0 003.3809 0l0-12.8398a1.6902 1.6902 0 00-1.7168-1.7129z">
    </path>
</svg>